<?xml version="1.0" encoding="utf-8"?>
<!-- Generator: Adobe Illustrator 14.0.0, SVG Export Plug-In . SVG Version: 6.00 Build 43363)  -->
<!DOCTYPE svg PUBLIC "-//W3C//DTD SVG 1.1//EN" "http://www.w3.org/Graphics/SVG/1.1/DTD/svg11.dtd">
<svg version="1.1" id="Layer_1" xmlns="http://www.w3.org/2000/svg" xmlns:xlink="http://www.w3.org/1999/xlink" x="0px" y="0px"
	 width="40px" height="40px" viewBox="0 0 40 40" enable-background="new 0 0 40 40" xml:space="preserve">
<path fill="#FFFFFF" d="M23.85,16.507H22.5l-0.109,1.122c-0.387-0.688-1.148-1.277-2.371-1.277c-2.127,0-3.793,1.981-3.793,4.511
	c0,2.068,1.23,3.406,3.135,3.406c1.251,0,2.264-0.805,2.822-1.707c0.228,1.029,0.985,1.57,2.217,1.57c1.6,0,3.466-1.277,3.466-4.879
	c0-4.073-3.187-7.03-7.573-7.03c-4.485,0-8.135,3.675-8.135,8.192c0,3.75,2.485,7.787,7.941,7.787c2.739,0,5.112-1.082,6.193-2.823
	l0.142-0.229h-1.276l-0.109,0.048c-1.18,1.245-2.798,1.852-4.948,1.852c-4.596,0-6.654-3.341-6.654-6.651
	c0-4.002,2.944-7.021,6.847-7.021c3.854,0,6.342,2.322,6.342,5.916c0,2.37-0.835,3.784-2.232,3.784
	c-0.375,0-0.659-0.107-0.844-0.319c-0.267-0.305-0.35-0.831-0.248-1.565L23.85,16.507z M19.554,23.173
	c-1.223,0-1.982-0.894-1.982-2.33c0-2.194,1.301-3.377,2.526-3.377c1.277,0,2.039,0.893,2.039,2.389
	C22.137,21.686,20.979,23.173,19.554,23.173z"/>
</svg>
