<?xml version="1.0" encoding="utf-8"?>
<!-- Generator: Adobe Illustrator 14.0.0, SVG Export Plug-In . SVG Version: 6.00 Build 43363)  -->
<!DOCTYPE svg PUBLIC "-//W3C//DTD SVG 1.1//EN" "http://www.w3.org/Graphics/SVG/1.1/DTD/svg11.dtd">
<svg version="1.1" id="Layer_1" xmlns="http://www.w3.org/2000/svg" xmlns:xlink="http://www.w3.org/1999/xlink" x="0px" y="0px"
	 width="40px" height="40px" viewBox="0 0 40 40" enable-background="new 0 0 40 40" xml:space="preserve">
<path fill="#FFFFFF" d="M0,0v40h40V0H0z M24.4,24.133c-1.231,0-1.989-0.541-2.217-1.57c-0.558,0.902-1.57,1.707-2.822,1.707
	c-1.905,0-3.135-1.338-3.135-3.406c0-2.53,1.666-4.511,3.793-4.511c1.222,0,1.984,0.589,2.371,1.277l0.109-1.122h1.35l-0.539,4.687
	c-0.102,0.734-0.019,1.261,0.248,1.565c0.185,0.212,0.469,0.319,0.844,0.319c1.397,0,2.232-1.414,2.232-3.784
	c0-3.594-2.488-5.916-6.342-5.916c-3.903,0-6.847,3.019-6.847,7.021c0,3.31,2.058,6.651,6.654,6.651c2.15,0,3.768-0.606,4.948-1.852
	l0.109-0.048h1.276l-0.142,0.229c-1.081,1.741-3.454,2.823-6.193,2.823c-5.456,0-7.941-4.037-7.941-7.787
	c0-4.517,3.65-8.192,8.135-8.192c4.387,0,7.573,2.957,7.573,7.03C27.866,22.855,26,24.133,24.4,24.133z M20.098,17.466
	c-1.225,0-2.526,1.183-2.526,3.377c0,1.437,0.759,2.33,1.982,2.33c1.424,0,2.583-1.487,2.583-3.318
	C22.137,18.359,21.375,17.466,20.098,17.466z"/>
</svg>
