<?xml version="1.0" encoding="utf-8"?>
<!-- Generator: Adobe Illustrator 14.0.0, SVG Export Plug-In . SVG Version: 6.00 Build 43363)  -->
<!DOCTYPE svg PUBLIC "-//W3C//DTD SVG 1.1//EN" "http://www.w3.org/Graphics/SVG/1.1/DTD/svg11.dtd">
<svg version="1.1" id="Layer_1" xmlns="http://www.w3.org/2000/svg" xmlns:xlink="http://www.w3.org/1999/xlink" x="0px" y="0px"
	 width="40px" height="40px" viewBox="0 0 40 40" enable-background="new 0 0 40 40" xml:space="preserve">
<polygon fill="#FFFFFF" points="20.85,24.8 19.35,24.8 19.35,19.199 20.85,19.199 20.85,24.8 "/>
<polygon fill="#FFFFFF" points="20.85,17.599 19.35,17.599 19.35,15.2 20.85,15.2 20.85,17.599 "/>
<path fill="#FFFFFF" d="M20,30c-5.514,0-10-4.486-10-10c0-5.514,4.486-10,10-10c5.514,0,10,4.486,10,10C30,25.514,25.514,30,20,30
	L20,30z M20,11.5c-4.687,0-8.5,3.813-8.5,8.5c0,4.687,3.813,8.5,8.5,8.5c4.687,0,8.5-3.813,8.5-8.5C28.5,15.313,24.687,11.5,20,11.5
	L20,11.5z"/>
</svg>
