<?xml version="1.0" encoding="utf-8"?>
<!-- Generator: Adobe Illustrator 14.0.0, SVG Export Plug-In . SVG Version: 6.00 Build 43363)  -->
<!DOCTYPE svg PUBLIC "-//W3C//DTD SVG 1.1//EN" "http://www.w3.org/Graphics/SVG/1.1/DTD/svg11.dtd">
<svg version="1.1" id="Layer_1" xmlns="http://www.w3.org/2000/svg" xmlns:xlink="http://www.w3.org/1999/xlink" x="0px" y="0px"
	 width="40px" height="40px" viewBox="0 0 40 40" enable-background="new 0 0 40 40" xml:space="preserve">
<rect y="0" fill="none" width="40" height="40"/>
<path fill="#FFFFFF" d="M0,0v40h40V0H0z M28.5,27.328c0,0.676-0.563,1.225-1.255,1.225H12.757c-0.696,0-1.257-0.549-1.257-1.225
	V12.671c0-0.676,0.561-1.226,1.257-1.226h14.488c0.691,0,1.255,0.55,1.255,1.226V27.328z"/>
<rect x="14.084" y="18.041" fill="#FFFFFF" width="2.569" height="7.725"/>
<rect y="0" fill="none" width="40" height="40"/>
<path fill="#FFFFFF" d="M15.386,14.317c-0.88,0-1.451,0.578-1.451,1.335c0,0.742,0.557,1.336,1.416,1.336h0.019
	c0.897,0,1.451-0.594,1.451-1.336C16.804,14.895,16.266,14.317,15.386,14.317"/>
<path fill="#FFFFFF" d="M22.956,17.861c-1.366,0-1.976,0.752-2.315,1.28v0.021h-0.016c0.003-0.006,0.011-0.014,0.016-0.021v-1.099
	h-2.566c0.032,0.724,0,7.726,0,7.726h2.566v-4.316c0-0.23,0.016-0.458,0.085-0.625c0.187-0.462,0.608-0.939,1.317-0.939
	c0.929,0,1.3,0.708,1.3,1.746v4.135h2.569V21.34C25.913,18.965,24.646,17.861,22.956,17.861"/>
</svg>
