<?xml version="1.0" encoding="utf-8"?>
<!-- Generator: Adobe Illustrator 14.0.0, SVG Export Plug-In . SVG Version: 6.00 Build 43363)  -->
<!DOCTYPE svg PUBLIC "-//W3C//DTD SVG 1.1//EN" "http://www.w3.org/Graphics/SVG/1.1/DTD/svg11.dtd">
<svg version="1.1" id="Layer_1" xmlns="http://www.w3.org/2000/svg" xmlns:xlink="http://www.w3.org/1999/xlink" x="0px" y="0px"
	 width="40px" height="40px" viewBox="0 0 40 40" enable-background="new 0 0 40 40" xml:space="preserve">
<path fill="#FFFFFF" d="M27.245,11.445H12.757c-0.696,0-1.257,0.55-1.257,1.226v14.657c0,0.676,0.561,1.225,1.257,1.225h14.488
	c0.691,0,1.255-0.549,1.255-1.225V12.671C28.5,11.995,27.937,11.445,27.245,11.445z M16.653,25.766h-2.569v-7.725h2.569V25.766z
	 M15.37,16.988h-0.019c-0.859,0-1.416-0.594-1.416-1.336c0-0.757,0.571-1.335,1.451-1.335c0.88,0,1.418,0.578,1.435,1.335
	C16.821,16.394,16.267,16.988,15.37,16.988z M25.912,25.768h-2.569v-4.135c0-1.038-0.371-1.746-1.3-1.746
	c-0.709,0-1.131,0.477-1.317,0.939c-0.069,0.167-0.085,0.395-0.085,0.625v4.316h-2.566c0,0,0.032-7.002,0-7.726h2.566v1.099
	c0.34-0.528,0.949-1.28,2.315-1.28c1.69,0,2.957,1.104,2.956,3.479V25.768z M20.641,19.162v-0.021
	c-0.005,0.007-0.013,0.015-0.016,0.021H20.641z"/>
</svg>
