<?xml version="1.0" encoding="utf-8"?>
<!-- Generator: Adobe Illustrator 14.0.0, SVG Export Plug-In . SVG Version: 6.00 Build 43363)  -->
<!DOCTYPE svg PUBLIC "-//W3C//DTD SVG 1.1//EN" "http://www.w3.org/Graphics/SVG/1.1/DTD/svg11.dtd">
<svg version="1.1" id="Layer_1" xmlns="http://www.w3.org/2000/svg" xmlns:xlink="http://www.w3.org/1999/xlink" x="0px" y="0px"
	 width="40px" height="40px" viewBox="0 0 40 40" enable-background="new 0 0 40 40" xml:space="preserve">
<path fill="#FFFFFF" d="M0,0v40h40V0H0z M28,26.25c0,1.284-1.047,1.75-1.75,1.75h-12.5C12.466,28,12,26.953,12,26.25v-12.5
	c0-1.284,1.046-1.75,1.75-1.75h4.544v1.5H13.75c-0.25,0.011-0.25,0.138-0.25,0.25v12.5c0.011,0.25,0.138,0.25,0.25,0.25h12.5
	c0.25-0.012,0.25-0.138,0.25-0.25v-4.544H28V26.25z M28,20h-1.5v-5.439l-5.635,5.635l-1.061-1.061L25.44,13.5H20V12h8V20z"/>
</svg>
