<?xml version="1.0" encoding="utf-8"?>
<!-- Generator: Adobe Illustrator 14.0.0, SVG Export Plug-In . SVG Version: 6.00 Build 43363)  -->
<!DOCTYPE svg PUBLIC "-//W3C//DTD SVG 1.1//EN" "http://www.w3.org/Graphics/SVG/1.1/DTD/svg11.dtd">
<svg version="1.1" id="Layer_1" xmlns="http://www.w3.org/2000/svg" xmlns:xlink="http://www.w3.org/1999/xlink" x="0px" y="0px"
	 width="40px" height="40px" viewBox="0 0 40 40" enable-background="new 0 0 40 40" xml:space="preserve">
<path fill="#FFFFFF" d="M0,0v40h40V0H0z M25.966,16.941c0.006,0.132,0.008,0.264,0.008,0.397c0,4.067-3.096,8.758-8.756,8.758
	c-1.739,0-3.355-0.509-4.718-1.384c0.241,0.027,0.485,0.041,0.734,0.041c1.442,0,2.769-0.489,3.823-1.316
	c-1.347-0.023-2.485-0.914-2.876-2.137c0.187,0.036,0.382,0.057,0.58,0.057c0.28,0,0.551-0.039,0.81-0.109
	c-1.408-0.283-2.47-1.527-2.47-3.016v-0.039c0.415,0.228,0.89,0.369,1.395,0.384c-0.828-0.554-1.371-1.494-1.371-2.562
	c0-0.563,0.151-1.092,0.418-1.548c1.517,1.863,3.786,3.087,6.343,3.218c-0.052-0.226-0.08-0.463-0.08-0.702
	c0-1.701,1.379-3.079,3.078-3.079c0.886,0,1.686,0.375,2.246,0.973c0.703-0.138,1.36-0.395,1.955-0.747
	c-0.229,0.718-0.717,1.322-1.354,1.702c0.623-0.072,1.218-0.239,1.769-0.483C27.087,15.965,26.567,16.506,25.966,16.941z"/>
</svg>
