<?xml version="1.0" encoding="utf-8"?>
<!-- Generator: Adobe Illustrator 14.0.0, SVG Export Plug-In . SVG Version: 6.00 Build 43363)  -->
<!DOCTYPE svg PUBLIC "-//W3C//DTD SVG 1.1//EN" "http://www.w3.org/Graphics/SVG/1.1/DTD/svg11.dtd">
<svg version="1.1" id="Layer_1" xmlns="http://www.w3.org/2000/svg" xmlns:xlink="http://www.w3.org/1999/xlink" x="0px" y="0px"
	 width="40px" height="40px" viewBox="0 0 40 40" enable-background="new 0 0 40 40" xml:space="preserve">
<path fill="#717073" d="M15.516,37.677c0.299,0,0.632-0.398,0.632-0.932V3.255c0-0.533-0.333-0.932-0.632-0.932h-1.794
	c-0.298,0-0.633,0.398-0.633,0.932v33.49c0,0.533,0.335,0.932,0.633,0.932H15.516z M13.722,0h1.794c1.63,0,2.955,1.46,2.955,3.255
	v33.49c0,1.795-1.325,3.255-2.955,3.255h-1.794c-1.631,0-2.956-1.46-2.956-3.255V3.255C10.766,1.46,12.09,0,13.722,0"/>
<polygon fill="#717073" points="5.382,0 5.382,18.139 2.324,18.139 2.324,0 0,0 0,40 2.324,40 2.324,20.463 5.382,20.463 5.382,40 
	7.706,40 7.706,0 "/>
<path fill="#717073" d="M24.485,0h1.794c1.631,0,2.957,1.46,2.957,3.255V20.64h-2.324V3.255c0-0.532-0.334-0.931-0.633-0.931h-1.794
	c-0.298,0-0.632,0.398-0.632,0.931V40h-2.324V3.255C21.529,1.46,22.856,0,24.485,0"/>
<path fill="#717073" d="M35.25,0h1.795C38.675,0,40,1.46,40,3.255V40h-2.323V3.255c0-0.532-0.333-0.931-0.632-0.931H35.25
	c-0.299,0-0.633,0.398-0.633,0.931V40h-2.322V3.255C32.295,1.46,33.621,0,35.25,0"/>
</svg>
